<svg xmlns="http://www.w3.org/2000/svg" width="25" height="25" viewBox="0 0 25 25">
    <g fill="#FFF" fill-rule="nonzero">
        <path d="M12.5 25C5.608 25 0 19.392 0 12.5S5.608 0 12.5 0 25 5.608 25 12.5 19.392 25 12.5 25zm0-23.958c-6.318 0-11.458 5.14-11.458 11.458 0 6.318 5.14 11.458 11.458 11.458 6.318 0 11.458-5.14 11.458-11.458 0-6.318-5.14-11.458-11.458-11.458z"/>
        <path d="M12.5 14.583a2.085 2.085 0 0 1-2.083-2.083c0-1.149.934-2.083 2.083-2.083s2.083.934 2.083 2.083a2.085 2.085 0 0 1-2.083 2.083zm0-3.125a1.043 1.043 0 0 0 0 2.084 1.043 1.043 0 0 0 0-2.084z"/>
        <path d="M13.605 11.916a.52.52 0 0 1-.368-.889l5.156-5.156a.52.52 0 1 1 .736.737l-5.156 5.156a.52.52 0 0 1-.368.152zM4.688 13.02H2.603a.52.52 0 1 1 0-1.04h2.083a.52.52 0 1 1 0 1.04zM3.358 16.808a.52.52 0 0 1-.2-1.002l1.926-.797a.52.52 0 0 1 .398.962l-1.925.797a.527.527 0 0 1-.2.04zM21.642 16.808a.517.517 0 0 1-.2-.04l-1.924-.797a.521.521 0 0 1 .4-.963l1.924.798a.521.521 0 0 1-.2 1.002zM22.395 13.021h-2.083a.52.52 0 1 1 0-1.042h2.083a.52.52 0 1 1 0 1.042zM19.718 10.031a.52.52 0 0 1-.2-1.002l1.925-.796a.52.52 0 1 1 .398.962l-1.924.797a.526.526 0 0 1-.2.04zM15.49 5.803a.521.521 0 0 1-.481-.72l.797-1.924a.521.521 0 1 1 .963.399l-.798 1.924a.523.523 0 0 1-.481.321zM12.5 5.208a.52.52 0 0 1-.52-.52V2.604a.52.52 0 1 1 1.041 0v2.083a.52.52 0 0 1-.521.52zM9.51 5.803a.52.52 0 0 1-.48-.321l-.797-1.925a.521.521 0 0 1 .962-.399l.797 1.925a.52.52 0 0 1-.482.72zM6.976 7.497a.521.521 0 0 1-.369-.153L5.135 5.871a.52.52 0 0 1 .737-.737l1.472 1.474a.52.52 0 0 1-.368.889zM5.282 10.031a.522.522 0 0 1-.2-.04l-1.924-.797a.521.521 0 0 1 .4-.963l1.924.798a.521.521 0 0 1-.2 1.002zM17.188 20.833H7.813a.52.52 0 0 1-.521-.52v-3.125a.52.52 0 0 1 .52-.521h9.375a.52.52 0 0 1 .521.52v3.125a.52.52 0 0 1-.52.521zm-8.855-1.041h8.334v-2.084H8.333v2.084z"/>
    </g>
</svg>
