<svg xmlns="http://www.w3.org/2000/svg" width="19" height="16" viewBox="0 0 19 16">
    <path fill="#6A6A6A" fill-rule="nonzero" d="M8.74 15.519C1.887 9.945.042 7.987.042 4.786A4.749 4.749 0 0 1 4.786.042c2.185 0 3.427 1.242 4.256 2.184.828-.942 2.07-2.184 4.255-2.184a4.749 4.749 0 0 1 4.745 4.744c0 3.201-1.846 5.16-8.7 10.733l-.3.263-.302-.263zM1.02 4.786c0 2.75 1.733 4.557 8.022 9.716 6.288-5.16 8.02-6.967 8.02-9.716a3.777 3.777 0 0 0-3.765-3.765c-1.883 0-2.9 1.13-3.69 2.033l-.565.64-.565-.64c-.791-.904-1.808-2.033-3.69-2.033A3.777 3.777 0 0 0 1.02 4.786z"/>
</svg>
