<svg xmlns="http://www.w3.org/2000/svg" width="15" height="15" viewBox="0 0 15 15">
    <path fill="#4A4A4A" fill-rule="nonzero" stroke="#4A4A4A" d="M7.563.895C3.942.895 1 3.905 1 7.605c0 3.701 2.943 6.71 6.563 6.71 3.619 0 6.562-3.009 6.562-6.71 0-3.7-2.943-6.71-6.563-6.71zm0 .894c3.146 0 5.687 2.6 5.687 5.816 0 3.218-2.541 5.816-5.688 5.816-3.146 0-5.687-2.598-5.687-5.816 0-3.217 2.541-5.816 5.688-5.816zm-.175 1.348c-.33.026-.657.13-.953.313a2.261 2.261 0 0 0-1.017 2.359c.049.24.279.396.514.347a.447.447 0 0 0 .344-.524 1.352 1.352 0 0 1 .61-1.415 1.287 1.287 0 0 1 1.509.11c.43.36.59.955.403 1.49-.187.536-.68.892-1.236.892a.434.434 0 0 0-.346.168.455.455 0 0 0-.084.382v2.667a.45.45 0 0 0 .217.393.43.43 0 0 0 .44 0 .45.45 0 0 0 .218-.393V7.553a2.204 2.204 0 0 0 1.615-1.435 2.27 2.27 0 0 0-.675-2.481 2.157 2.157 0 0 0-1.559-.5zm.181 8.098c-.241 0-.437.2-.437.447s.196.448.437.448c.242 0 .438-.2.438-.448a.443.443 0 0 0-.438-.447z"/>
</svg>
