<svg xmlns="http://www.w3.org/2000/svg" width="15" height="15" viewBox="0 0 15 15">
    <path fill="#4A4A4A" fill-rule="nonzero" d="M2.971 12.328a6.616 6.616 0 0 0 9.52 0c2.628-2.695 2.628-7.062 0-9.756a6.616 6.616 0 0 0-9.52 0c-2.628 2.694-2.628 7.061 0 9.756zM5.957 3.16L6.96 4.186a.66.66 0 0 1 .104.776l-.377.685a.439.439 0 0 0 .07.517l2.23 2.285c.133.137.34.166.504.07l.668-.385a.62.62 0 0 1 .757.107l1.002 1.027a.66.66 0 0 1 0 .916l-.474.486a1.657 1.657 0 0 1-2.039.272l-.045-.027a13.373 13.373 0 0 1-4.775-4.79l-.228-.39a1.758 1.758 0 0 1 .253-2.11l.454-.465a.624.624 0 0 1 .894 0z"/>
</svg>
