<svg xmlns="http://www.w3.org/2000/svg" width="15" height="15" viewBox="0 0 15 15">
    <path fill="#4A4A4A" fill-rule="nonzero" d="M10.91 0H.681A.684.684 0 0 0 0 .682v13.636c0 .375.307.682.682.682h10.227a.684.684 0 0 0 .682-.682V.682A.684.684 0 0 0 10.909 0zm-.683 13.636H1.364V1.364h8.863v12.272zm-7.159-2.471c0-.324.273-.597.597-.597h4.057c.323 0 .596.273.596.597a.593.593 0 0 1-.596.596H3.665a.604.604 0 0 1-.597-.596zm0-2.387c0-.323.273-.596.597-.596h4.057c.323 0 .596.273.596.596a.593.593 0 0 1-.596.597H3.665a.604.604 0 0 1-.597-.597zm5.284-4.943a.604.604 0 0 0-.596-.596H3.665a.604.604 0 0 0-.597.596v2.387c0 .323.273.596.597.596h4.09a.604.604 0 0 0 .597-.596V3.835zm-4.09.597h2.897v1.193H4.261V4.432z"/>
</svg>
