<svg xmlns="http://www.w3.org/2000/svg" width="15" height="15" viewBox="0 0 15 15">
    <g fill="#4A4A4A" fill-rule="nonzero">
        <path d="M1.941 9.75C.867 9.75 0 8.914 0 7.875 0 6.84.867 6 1.941 6c1.079 0 1.946.84 1.946 1.875 0 1.04-.867 1.875-1.946 1.875zM7.5 9.75c-1.074 0-1.945-.836-1.945-1.875C5.555 6.84 6.425 6 7.5 6c1.074 0 1.941.84 1.941 1.875 0 1.04-.867 1.875-1.941 1.875zM13.055 9.75c-1.075 0-1.946-.836-1.946-1.875C11.11 6.84 11.977 6 13.055 6 14.129 6 15 6.84 15 7.875c0 1.04-.867 1.875-1.945 1.875z"/>
    </g>
</svg>
