<svg xmlns="http://www.w3.org/2000/svg" width="15" height="15" viewBox="0 0 15 15">
    <g fill="#4A4A4A" fill-rule="nonzero">
        <path d="M1.176 14.118a.534.534 0 0 1-.411-.177c-.177-.176-.236-.412-.118-.647l1.765-4.118c0-.058.059-.117.117-.176L10.882.647c.824-.823 2.294-.823 3.177 0 .412.47.647 1 .647 1.588 0 .589-.235 1.177-.647 1.589l-8.353 8.352c-.059.06-.118.118-.177.118L1.412 14.06c-.06.059-.177.059-.236.059zm2.236-4.353l-1.118 2.647 2.647-1.118 8.235-8.235c.236-.235.353-.53.353-.824 0-.294-.117-.53-.294-.764-.47-.471-1.117-.412-1.53 0L3.413 9.765z"/>
        <path d="M5.294 12.353a.534.534 0 0 1-.412-.177L2.53 9.824a.569.569 0 0 1 0-.824.569.569 0 0 1 .824 0l2.353 2.353a.569.569 0 0 1 0 .823.534.534 0 0 1-.412.177zm0-6.47c-.059 0-.176 0-.235-.06-.294-.176-.412-.47-.294-.764.411-.824.94-1.588 1.647-2.235l1.47-1.471a2.237 2.237 0 0 1 3.177 0 .569.569 0 0 1 0 .823.569.569 0 0 1-.824 0 1.03 1.03 0 0 0-1.47 0l-1.47 1.471a7.448 7.448 0 0 0-1.413 1.941c-.176.177-.353.294-.588.294z"/>
    </g>
</svg>
