<svg xmlns="http://www.w3.org/2000/svg" width="15" height="15" viewBox="0 0 15 15">
    <path fill="#4A4A4A" fill-rule="nonzero" d="M12.655 7.455a1.5 1.5 0 1 1-3 0 1.5 1.5 0 0 1 3 0m-3.75 0a1.5 1.5 0 1 1-3 0 1.5 1.5 0 0 1 3 0m-3.75 0a1.5 1.5 0 1 1-3 0 1.5 1.5 0 0 1 3 0M13.08 13.5s-1.961-.557-3.317-.557c-1.105 0-1.357.196-2.295.196-3.06 0-5.533-2.258-5.912-5-.504-3.641 2.395-6.64 5.912-6.639 2.957 0 5.283 2.027 5.83 4.562.202.902.182 1.84-.058 2.732-.285 1.054-.272 2.24.037 3.426.157.607.45 1.28-.197 1.28m1.857-.856l-.208-.802c-.227-.87-.276-1.788-.041-2.656a7.234 7.234 0 0 0 .077-3.441C14.076 2.554 11.146 0 7.468 0 3 0-.551 3.845.071 8.344c.482 3.48 3.582 6.295 7.397 6.295 1.102 0 1.324-.196 2.297-.196 1.173 0 2.832.496 2.832.496 1.416.355 2.703-.906 2.341-2.295"/>
</svg>
