<svg xmlns="http://www.w3.org/2000/svg" width="40" height="40" viewBox="0 0 40 40">
    <g fill="none" fill-rule="nonzero">
        <rect width="40" height="40" fill="#50E3C2" rx="8"/>
        <path fill="#FFF" d="M26.334 29.165a7.898 7.898 0 0 0 1.065-3.965c0-2.175-.869-6.79-2.269-10.829 1.464-1.44 2.862-2.577 3.853-3.016a.611.611 0 0 1 .512.008.629.629 0 0 1 .332.396c.826 2.994-.58 14.888-3.493 17.407m-3.015-.245a4.973 4.973 0 0 1-6.847.186 5.222 5.222 0 0 1-1.76-3.907c0-3.88 2.626-12.813 4.612-15.124a.613.613 0 0 1 .922-.004c1.983 2.3 4.616 11.172 4.616 15.128a5.237 5.237 0 0 1-1.543 3.72m-10.494-.62c-1.985-2.186-3.751-13.324-2.878-16.535a.628.628 0 0 1 .331-.399.61.61 0 0 1 .513-.008c.963.431 2.294 1.528 3.724 2.922-1.252 3.575-3.215 10.416-1.69 14.02M29.742 8.558c-1.55 0-3.592 1.346-5.633 3.217C22.882 9.03 21.392 7 19.786 7c-1.59 0-3.067 1.989-4.289 4.696-1.58-1.438-4.585-3.861-6.495-2.93-3.796 1.85-1.35 15.895.456 19.785 1.303 2.805 4.028 4.446 6.567 4.449h6.201v-.01c3.662.08 6.343-1.858 7.544-4.44 1.91-4.108 5.181-19.993-.028-19.993"/>
    </g>
</svg>
